<?xml version="1.0" standalone="no"?>
<!DOCTYPE svg PUBLIC "-//W3C//DTD SVG 20010904//EN"
 "http://www.w3.org/TR/2001/REC-SVG-20010904/DTD/svg10.dtd">
<svg version="1.0" xmlns="http://www.w3.org/2000/svg"
 width="440.000000pt" height="440.000000pt" viewBox="0 0 440.000000 440.000000"
 preserveAspectRatio="xMidYMid meet">
<metadata>
Created by potrace 1.14, written by Peter Selinger 2001-2017
</metadata>
<g transform="translate(0.000000,440.000000) scale(0.100000,-0.100000)"
fill="#000000" stroke="none">
<path d="M3978 3044 c-4 -3 -12 -7 -20 -8 -25 -4 -93 -29 -104 -37 -6 -5 -14
-6 -17 -2 -4 3 -7 1 -7 -5 0 -7 -3 -11 -7 -10 -9 1 -30 -6 -80 -28 -17 -8 -36
-14 -42 -14 -6 0 -27 -7 -48 -16 -55 -24 -69 -30 -168 -68 -49 -19 -103 -40
-120 -47 -16 -7 -34 -13 -40 -15 -5 -1 -23 -8 -40 -15 -16 -7 -33 -12 -37 -11
-5 1 -8 -3 -8 -9 0 -5 -4 -8 -8 -5 -5 3 -21 -2 -37 -10 -16 -8 -36 -16 -44
-18 -9 -1 -33 -10 -55 -19 -21 -9 -44 -17 -50 -17 -7 0 -17 -5 -23 -11 -6 -6
-17 -12 -24 -13 -8 -2 -26 -8 -40 -13 -14 -6 -44 -17 -67 -24 -23 -7 -42 -16
-42 -21 0 -4 -3 -7 -7 -6 -23 5 -62 -17 -78 -45 l-18 -31 -16 23 c-8 13 -16
29 -18 35 -9 43 -26 104 -33 121 -4 11 -11 28 -14 37 -5 17 -57 44 -171 88
-33 13 -64 27 -70 32 -5 4 -17 8 -27 8 -10 0 -18 5 -18 12 0 6 -3 8 -7 5 -3
-4 -12 -2 -19 3 -16 14 -88 26 -216 36 -50 4 -75 1 -98 -11 -16 -8 -32 -15
-35 -15 -20 1 -26 -2 -44 -22 -11 -11 -18 -24 -16 -28 2 -3 -3 -26 -11 -51
-32 -92 -46 -116 -78 -127 -17 -7 -70 -50 -118 -95 -49 -46 -90 -82 -93 -79
-3 3 -5 -1 -5 -10 0 -18 -47 -60 -55 -49 -3 5 -13 8 -23 7 -9 -2 -30 1 -47 6
-16 4 -50 11 -75 14 -25 3 -48 8 -51 10 -3 1 -28 6 -55 9 -27 4 -58 9 -69 13
-11 3 -29 6 -40 7 -11 1 -34 5 -50 9 -17 4 -43 10 -60 12 -16 2 -52 8 -80 14
-27 5 -63 12 -80 15 -16 3 -39 8 -50 10 -11 2 -36 6 -55 9 -19 3 -66 12 -105
20 -38 8 -88 17 -109 20 -21 4 -48 8 -60 11 -19 4 -64 12 -121 20 -11 2 -20 4
-20 5 0 3 -39 10 -77 14 -21 3 -46 7 -56 10 -45 15 -205 28 -227 20 -21 -9
-10 -52 21 -80 32 -28 105 -69 117 -66 4 1 7 -3 7 -8 0 -6 15 -10 33 -10 17 0
53 -7 79 -14 25 -8 49 -12 52 -9 3 4 6 2 6 -3 0 -5 17 -10 38 -11 20 -1 48 -4
62 -7 14 -2 43 -7 65 -11 22 -3 51 -8 65 -10 14 -3 45 -8 70 -12 25 -3 53 -10
64 -15 14 -8 17 -7 10 4 -6 10 -5 11 7 1 14 -11 85 -25 142 -27 15 -1 27 -5
27 -10 0 -5 3 -6 7 -3 3 4 12 2 19 -4 8 -7 14 -7 19 1 4 7 11 8 18 1 7 -5 32
-12 57 -15 48 -6 85 -13 85 -16 0 -1 11 -3 25 -5 37 -4 103 -16 120 -20 8 -3
33 -7 55 -10 40 -6 59 -10 113 -21 15 -3 37 -17 50 -32 13 -15 21 -20 17 -12
-4 8 3 4 14 -9 12 -13 21 -20 21 -16 0 3 18 -12 40 -34 22 -22 40 -44 40 -49
0 -10 -40 -48 -46 -44 -4 3 -81 -41 -154 -86 -14 -9 -30 -17 -36 -18 -6 -1
-31 -14 -55 -30 -24 -15 -57 -35 -74 -44 -16 -9 -47 -26 -69 -39 -303 -174
-386 -221 -395 -221 -6 0 -11 -4 -11 -8 0 -10 -50 -37 -62 -34 -5 1 -8 -2 -8
-8 0 -5 -7 -10 -15 -10 -8 0 -15 -4 -15 -8 0 -4 -12 -13 -27 -19 -16 -7 -44
-22 -63 -33 -67 -40 -75 -44 -82 -42 -5 1 -8 -3 -8 -8 0 -6 -7 -10 -15 -10 -8
0 -15 -4 -15 -10 0 -5 -4 -10 -10 -10 -12 0 -240 -130 -258 -146 -6 -7 -12
-17 -12 -23 0 -14 63 -76 85 -84 8 -4 15 -11 15 -17 0 -5 7 -10 15 -10 9 0 18
-7 21 -15 4 -8 10 -15 15 -15 5 0 18 -8 28 -17 11 -9 28 -18 38 -20 25 -4 124
26 146 45 9 8 17 11 17 7 0 -4 8 -1 18 7 9 8 35 23 57 33 22 10 46 24 53 32 8
7 18 11 23 8 5 -4 9 -1 9 4 0 6 7 11 15 11 8 0 15 3 15 8 0 4 10 12 23 17 56
27 153 80 158 89 4 5 12 5 18 2 6 -4 11 -3 11 2 0 4 17 17 37 29 21 11 74 40
118 63 44 24 98 54 120 67 22 12 60 32 85 45 25 12 47 24 50 27 6 7 22 16 131
74 46 24 108 58 137 76 29 17 55 31 58 31 2 0 22 11 44 25 22 14 40 22 40 18
0 -5 4 -3 8 3 10 14 94 54 116 54 9 0 28 -12 41 -26 14 -15 25 -24 25 -21 0 3
15 -10 34 -28 19 -18 44 -36 56 -40 12 -4 19 -9 16 -12 -5 -6 34 -29 104 -65
14 -6 36 -20 50 -29 45 -30 201 -117 277 -155 43 -21 264 -101 298 -108 6 -1
19 -7 30 -13 11 -6 23 -12 27 -12 4 -1 16 -4 25 -7 52 -17 70 -23 88 -30 11
-4 22 -8 25 -9 3 0 23 -7 45 -14 40 -12 58 -19 105 -39 14 -6 57 -20 95 -33
39 -13 74 -26 80 -31 5 -4 17 -8 27 -8 10 0 26 -4 36 -9 51 -26 100 -42 143
-48 30 -4 47 4 120 52 46 32 87 62 91 69 4 6 8 7 8 3 0 -22 121 79 126 106 1
4 3 9 4 12 1 3 3 8 4 13 1 4 5 13 9 20 5 7 4 12 -3 12 -6 0 -8 4 -5 10 8 13
17 50 19 78 0 12 5 22 9 22 5 0 5 9 2 20 -5 16 -2 20 19 20 13 0 37 -5 52 -10
32 -12 130 -21 150 -13 26 10 13 38 -31 73 -25 19 -48 34 -53 34 -4 -1 -18 6
-32 15 -14 10 -46 26 -72 37 -27 10 -48 23 -48 27 0 5 -4 6 -9 2 -5 -3 -12 -1
-16 5 -3 5 -16 10 -29 10 -12 0 -26 4 -32 10 -5 5 -18 11 -29 13 -11 2 -38 11
-60 21 -22 9 -59 22 -82 29 -24 6 -43 15 -43 19 0 4 -9 8 -20 8 -11 0 -35 9
-55 20 -20 11 -41 20 -48 20 -33 0 -152 83 -219 153 -16 16 -28 26 -28 22 0
-3 -13 6 -29 22 -16 15 -48 44 -72 63 -24 19 -51 43 -61 53 -10 9 -18 14 -18
10 0 -3 -8 4 -19 15 -10 12 -21 22 -25 22 -4 0 -18 11 -31 24 l-24 25 44 17
c25 9 45 20 45 24 0 4 6 7 13 7 10 1 82 28 202 78 11 5 22 9 25 10 9 3 65 25
85 34 11 5 34 14 50 22 17 7 32 13 35 14 3 1 18 7 33 13 15 7 39 15 52 18 14
3 25 10 25 15 0 5 3 8 8 7 11 -3 156 54 160 63 2 4 10 5 18 2 8 -3 14 0 14 6
0 6 9 11 21 11 11 0 33 7 47 15 15 8 86 37 157 65 72 28 139 56 150 61 12 6
28 11 37 13 9 1 22 7 30 14 8 6 17 9 20 7 9 -9 39 45 32 57 -4 7 -3 8 4 4 7
-4 12 -1 12 7 0 13 -69 50 -110 59 -8 2 -17 5 -20 8 -7 7 -102 41 -117 42 -7
1 -13 4 -13 8 0 8 -55 12 -62 4z"/>
</g>
</svg>
